<?xml version="1.0" encoding="utf-8"?><!DOCTYPE svg PUBLIC "-//W3C//DTD SVG 1.1//EN" "http://www.w3.org/Graphics/SVG/1.1/DTD/svg11.dtd"><svg version="1.1" xmlns="http://www.w3.org/2000/svg" width="256" height="256" viewBox="0 0 256 256"><g transform="scale(0.25,0.25)"><g><rect fill="#D1D5DA" width="1024" height="1024" /></g><g transform="translate(0,0)"><g transform="scale(1,-1) translate(0,-871)"><path stroke="none" fill="#000000" d="M922 514Q890 506 868 502Q804 490 750 490Q752 450 754 394Q756 338 756 256Q749 210 735 210Q727 210 719 227Q711 243 708 268Q708 290 708 352Q708 414 708 483Q698 482 678 481Q658 480 648 480Q622 480 592 483Q574 297 414 231Q472 273 510 354Q548 434 548 528Q548 574 538 618Q534 630 534 638Q534 648 546 648Q568 644 584 642Q600 640 612 641Q638 657 653 668Q701 704 727 746Q734 770 752 770Q770 770 796 748Q808 739 832 715Q790 695 762 681Q676 641 599 611Q599 591 599 570Q599 549 594 513Q654 520 693 526Q799 541 895 563Q911 557 918 554Q942 542 942 531Q942 523 926 513V513L922 514ZM486 508Q472 500 463 495Q411 465 351 434Q351 400 352 376Q354 352 355 332Q355 280 345 248Q331 204 297 178Q285 200 277 214Q253 255 224 287Q238 283 247 281Q276 275 304 275Q306 288 307 298Q317 368 317 422Q279 402 253 390Q170 352 96 329Q83 333 65 347Q47 361 47 371Q47 383 71 386Q119 398 150 406Q240 432 317 460V577Q280 570 256 566Q210 558 176 553Q170 556 167 558Q145 572 145 580Q145 587 164 591L318 615Q318 619 318 622Q318 632 319 643Q319 681 315 717Q311 753 299 792Q287 801 287 809Q287 818 309 818Q333 818 357 807Q381 795 381 777Q381 774 379 768Q371 744 367 726Q355 674 355 620Q375 624 389 626Q445 636 460 638Q466 634 469 632Q479 622 479 616Q479 606 460 602Q441 598 429 596Q381 586 355 583V473Q381 481 397 487Q451 503 490 511V511L486 508ZM768 133Q748 113 737 97Q701 45 681 -19Q693 -24 699 -26Q719 -36 719 -42Q719 -51 687 -57Q625 -59 543 -61Q461 -63 357 -63Q356 -75 355 -81Q351 -101 339 -113Q325 -81 307 15Q289 111 258 156Q270 155 294 154Q318 153 334 153Q408 153 476 161Q572 172 653 198Q683 192 699 186Q750 166 770 131V131L768 133ZM645 140Q590 134 553 131Q441 122 343 122Q345 104 346 92Q356 14 356 -26Q408 -26 473 -24Q538 -22 626 -14Q632 14 635 32Q644 88 644 140V140V140V141L645 140Z" /></g></g></g></svg>