<?xml version="1.0" encoding="utf-8"?><!DOCTYPE svg PUBLIC "-//W3C//DTD SVG 1.1//EN" "http://www.w3.org/Graphics/SVG/1.1/DTD/svg11.dtd"><svg version="1.1" xmlns="http://www.w3.org/2000/svg" width="256" height="256" viewBox="0 0 256 256"><g transform="scale(0.25,0.25)"><g><rect fill="#D1D5DA" width="1024" height="1024" /></g><g transform="translate(0,0)"><g transform="scale(1,-1) translate(0,-871)"><path stroke="none" fill="#000000" d="M393 735Q399 737 407 737Q415 737 427 737Q459 737 495 729Q531 722 566 704Q573 697 579 679Q585 661 585 645Q585 629 577 619Q569 609 551 609Q544 609 540 610Q523 620 511 628Q445 674 391 732V732L393 735ZM731 502Q699 494 667 486Q591 466 505 450Q384 426 289 416Q273 422 265 425Q239 436 239 444Q239 453 271 458Q275 458 333 468Q409 482 484 499Q590 523 677 551Q689 553 697 553Q721 553 742 542Q763 532 763 520Q763 507 732 502V502H731ZM510 78Q512 78 528 119Q550 175 563 231Q583 315 583 397Q580 406 580 412Q580 424 594 424Q614 424 648 402Q683 380 686 366Q675 344 665 322Q637 264 611 216Q578 154 539 82Q599 94 639 100Q760 118 864 118Q890 118 914 98Q938 78 938 58Q938 32 893 32Q879 33 858 33Q837 33 799 33Q714 33 604 27Q494 22 377 10Q259 -3 124 -31Q108 -21 100 -16Q74 2 74 12Q74 23 106 23L506 73L510 78ZM393 164Q376 192 366 212Q332 278 314 336Q323 335 329 334Q369 324 406 287Q416 282 427 258Q438 234 438 212Q438 190 428 177Q418 165 394 165V165V165V166L393 164Z" /></g></g></g></svg>