<?xml version="1.0" standalone="no"?>
<!DOCTYPE svg PUBLIC "-//W3C//DTD SVG 1.1//EN" "http://www.w3.org/Graphics/SVG/1.1/DTD/svg11.dtd" >
<svg xmlns="http://www.w3.org/2000/svg" xmlns:xlink="http://www.w3.org/1999/xlink" version="1.1" viewBox="-10 0 275 256">
   <path fill="currentColor"
d="M146 4q15 11 12 12q-3 11 -4 45v7q17 -5 32 -8q4 -6 10 -8q14 2 22 7q0 6 -6 5q-10 -3 -21 -1q-10 1 -36 10q-1 8 1 21q14 21 38 46q6 7 18 6q22 1 41 8q3 2 0 2q-10 -1 -19 -2q-8 -1 -23 -1q-11 1 -21 -10l-6 -6q-20 -24 -27 -35q-1 50 1 77q1 27 4 45q-1 4 -6 2
q-5 -4 -6 -11q-2 -10 -5 -12q-7 -7 -11 -16q-2 -3 -1 -4q1 0 4 2q7 11 16 18q1 1 2 1t2 -3q-3 -30 -5 -77q-1 -15 -1 -24q-31 53 -65 70q-4 2 -5 1q0 -1 3 -4q39 -21 66 -78l-3 -3q-3 -6 -4 -9q-3 1 -5 2q-15 4 -26 9q-1 1 -3 1q-8 3 -14 0q-3 0 0 -2q30 -9 53 -16
q0 -33 -2 -46q-1 -14 -3 -19q-1 -2 -1 -3q1 0 4 1zM76 18q-2 -1 -1 -2q2 -1 4 0q14 11 9 14q-6 7 -8 40q16 -6 23 -6q2 1 2 2q1 2 0 2q-3 3 -12 4q-4 1 -13 4v4q6 6 3 9q-3 2 -4 4q0 13 -1 21q2 2 8 4q5 2 8 3q3 5 -1 7q-4 4 -15 -6q-1 38 1 51q1 13 9 31q2 3 -4 4
q-9 -4 -12 -12q-2 -7 -7 -15q-3 -2 -2 -3q0 -1 4 -2q1 0 3 1t4 0v-58q-2 -1 -1 -1q-3 -4 -5 -6q-27 49 -58 65q-5 4 -1 -1q36 -24 64 -93v-5q-24 8 -43 15q-13 7 -28 3q-2 0 -2 -1t2 -2q20 -2 72 -21q0 -19 2 -38q1 -9 0 -14v-2zM73 102q-2 5 -4 9q1 1 2 1q1 1 3 1
q0 -4 -1 -11z" />
</svg>
