<?xml version="1.0" encoding="utf-8"?>
<!-- Generator: Adobe Illustrator 21.0.2, SVG Export Plug-In . SVG Version: 6.00 Build 0)  -->
<svg version="1.1" id="圖層_1" xmlns="http://www.w3.org/2000/svg" xmlns:xlink="http://www.w3.org/1999/xlink" x="0px" y="0px"
	 viewBox="0 0 272 256" style="enable-background:new 0 0 272 256;" xml:space="preserve">

<path class="pen line-lin-8" d="m 139.85119,115.66071 c 3.22407,4.29876 1.86943,1.82855 3.77976,7.55953 1.89014,5.6704 3.22092,11.29163 6.04762,16.63095 1.53723,2.90366 3.82236,5.37686 5.29167,8.31547 0.60685,1.21372 0.75918,2.65069 1.5119,3.77977 0.31255,0.46882 1.04308,0.4434 1.51191,0.75595 2.02079,1.34719 3.73865,3.73866 5.29166,5.29167 0.92806,0.92805 4.53572,2.62317 4.53572,3.77976"
       />
<path class="pen line-lin-7" d="m 116.41667,113.39286 c -1.49703,16.46731 0.46591,1.91611 -2.26786,12.85119 -1.56267,6.25065 -1.58275,12.99287 -4.53572,18.89881 -2.06954,4.13907 -6.81084,7.58135 -8.31547,12.09523 -0.52917,1.5875 0.52916,3.70417 0,5.29167 -0.86865,2.60593 -0.75595,0.55998 -0.75595,2.26786"
       />
<path class="pen line-lin-6" d="M 127.75595,63.499999 130.77976,190.5"
       />
  
<path class="pen line-lin-5" d="m 98.273808,97.517856 c 2.758282,0.459714 4.825582,1.059723 7.559522,0.755952 7.82801,-0.869778 15.59119,-2.152327 23.43453,-3.023809 2.51818,-0.279797 8.88715,-0.817377 11.33928,0 2.01529,0.671764 7.54745,1.895919 9.82738,0.755951 1.11319,-0.55659 1.00299,-1.002987 1.51191,-1.511903 0.48698,-0.486981 2.31032,0.237826 3.02381,0 2.48592,-0.828643 2.86677,-1.511906 5.29166,-1.511906"
       />
   
<path class="pen line-lin-4" d="m 70.303572,118.68452 c -0.0024,5.60818 4.880239,9.99017 6.80357,15.11905 1.407578,3.75354 1.084273,7.49059 1.511905,11.33929 0.229262,2.06335 1.468319,2.93664 2.267858,4.53571 0.112689,0.22538 0,0.50397 0,0.75595 0,0.50397 -0.225383,1.06114 0,1.51191 0.251984,0.50397 1.259919,0.25198 1.511903,0.75595 0.338071,0.67614 -0.239054,1.5507 0,2.26786 0.205761,0.61728 2.124652,6.66036 2.267858,6.80357 0.178181,0.17818 0.577773,-0.17818 0.755951,0 0.919829,0.91983 0,7.62604 0,9.07143"
       />
   
<path class="pen line-lin-3" d="m 50.648809,108.85714 c 0,2.51984 0.796842,5.16899 0,7.55953 -1.038958,3.11687 -3.55037,5.5294 -5.291667,8.31547 -2.038572,3.26172 -4.068678,6.52915 -6.047618,9.82738 -4.792083,7.98681 -9.017138,15.70496 -15.119048,22.67857 -1.655235,1.8917 -2.813016,5.08088 -4.535714,6.80357 -1.606453,1.60646 -3.613423,2.85748 -5.291667,4.53572"
       />
   
<path class="pen line-lin-2" d="M 54.428572,58.964284 55.940475,197.30357"
/>
   
<path class="pen line-lin-1"  d="m 27.214285,102.05357 c 9.422952,0.9469 18.65337,-1.75025 27.970238,-2.267856 2.767558,-0.153755 5.55888,0.290166 8.315476,0 6.032968,-0.63505 11.223837,-3.023809 17.386906,-3.023809"
/>
  
</svg>
