<?xml version="1.0" standalone="no"?>
<!DOCTYPE svg PUBLIC "-//W3C//DTD SVG 1.1//EN" "http://www.w3.org/Graphics/SVG/1.1/DTD/svg11.dtd" >
<svg xmlns="http://www.w3.org/2000/svg" xmlns:xlink="http://www.w3.org/1999/xlink" version="1.1" viewBox="-10 0 273 256">
   <path fill=""
d="M77 28q12 5 26 12q3 5 -1 6q-13 0 -31 17q-10 9 -9 17q0 19 -1 30q2 5 9 1q2 -1 7 -2q20 -7 31 -12q5 -11 13 -7q4 2 11 1q3 4 0 7q-14 0 -28 4q-9 8 -9 19v35q1 19 2 32l6 9q3 4 5 5q1 2 0 2l-2 1q-10 -1 -12 -9q-2 -3 -5 -6q-8 -4 5 -13q-3 -33 -2 -51q0 -19 -1 -19
q-17 6 -31 17q-6 58 -36 77q-5 3 -1 -1q27 -21 31 -65q3 -25 0 -52q-2 -7 -8 -7q-4 -4 -1 -7q4 -4 12 -5q4 0 9 -6q2 -3 7 -7q8 -6 12 -13q3 -2 -10 -8q-5 -3 2 -2zM164 25q6 14 5 16q-8 11 -22 45q1 0 7 -2q-1 1 3 -1q19 -9 41 -14q3 -2 11 3q4 3 0 6q-7 3 -14 12
q-2 2 -4 3q-8 7 -15 11q-4 2 -4 1t3 -4q13 -10 21 -24q1 -2 0 -2q-1 -1 -4 -1q-22 6 -35 14q-7 4 -11 2q-6 14 -15 29q-2 2 -4 2q-1 -1 1 -4q30 -63 32 -91q-1 -4 0 -4t4 3zM120 190q24 -29 38 -61q-5 -5 -6 -3q-3 3 -1 -2q4 -6 15 -11q2 -1 3 1q2 1 1 3q-3 5 -6 13
q6 9 19 29q10 14 15 20q2 6 15 6q21 2 38 9q2 2 2 3q-1 1 -3 0q-15 -2 -37 -4q-13 0 -17 -10q-19 -28 -28 -40q-3 -4 -6 -9q-22 39 -40 58q-8 7 -2 -2zM161 120q-2 0 -5 3q0 1 2 2q1 1 2 1q0 -1 1 -2q0 -1 1 -3t-1 -1z" />
</svg>
