<?xml version="1.0" encoding="utf-8"?><!DOCTYPE svg PUBLIC "-//W3C//DTD SVG 1.1//EN" "http://www.w3.org/Graphics/SVG/1.1/DTD/svg11.dtd"><svg version="1.1" xmlns="http://www.w3.org/2000/svg" width="256" height="256" viewBox="0 0 256 256"><g transform="scale(0.25,0.25)"><g><rect fill="#D1D5DA" width="1024" height="1024" /></g><g transform="translate(0,0)"><g transform="scale(1,-1) translate(0,-871)"><path stroke="none" fill="#000000" d="M344 108Q347 108 388 152Q440 208 484 274Q546 367 578 458Q568 455 562 454Q513 441 480 433Q467 439 461 442Q441 451 441 458Q441 466 465 470Q489 474 507 477Q556 487 598 499Q598 503 598 505Q598 516 598 524Q598 584 594 625Q586 695 567 751Q559 765 559 771Q559 781 575 781Q599 781 635 763Q670 745 667 733Q657 695 651 668Q636 588 636 506L796 543Q814 543 832 533Q850 524 850 514Q850 503 818 499Q786 495 762 492Q696 482 637 470V421Q659 395 681 368Q740 302 808 252Q905 180 1013 144Q999 140 989 139Q959 133 926 133Q892 133 862 138Q833 142 798 155Q770 183 735 236Q646 372 638 382Q638 350 640 287Q642 224 644 120Q646 16 646 -48Q646 -74 641 -86Q635 -98 626 -98Q612 -98 596 -69Q579 -40 579 -11Q582 17 586 45Q596 126 602 213Q608 300 608 396Q595 369 581 343Q544 279 496 226Q430 151 350 107V107L344 108ZM390 434L297 412V298Q301 299 309 299Q339 299 370 279Q402 259 402 237Q402 219 378 205Q362 220 352 230Q319 260 297 276Q296 246 296 226Q292 80 292 -3Q282 -44 264 -44Q252 -44 242 -26Q233 -8 233 18Q233 24 235 36Q245 87 249 120Q263 226 263 306Q249 286 235 266Q195 217 152 180Q88 126 18 94Q20 94 57 128Q108 175 151 227Q215 303 264 387V409Q249 406 239 404Q169 388 126 381Q114 386 109 389Q91 399 91 406Q91 415 117 419Q143 423 161 426Q208 434 262 446Q262 451 262 454Q262 466 263 477Q263 522 259 575Q255 627 245 683Q233 701 233 710Q233 722 251 722Q271 722 296 709Q321 697 321 685Q313 643 310 615Q298 530 298 452L370 468Q380 465 385 463Q401 455 401 448Q401 440 385 434V434V434V435L390 434Z" /></g></g></g></svg>